<svg width="120" height="40" viewBox="0 0 120 40" fill="none" xmlns="http://www.w3.org/2000/svg">
  <defs>
    <!-- New gradient definitions with blue palette -->
    <linearGradient id="primaryGradient" x1="0%" y1="0%" x2="100%" y2="100%">
      <stop offset="0%" style="stop-color:#0096c7;stop-opacity:1" />
      <stop offset="100%" style="stop-color:#ade8f4;stop-opacity:1" />
    </linearGradient>
    
    <linearGradient id="accentGradient" x1="0%" y1="0%" x2="100%" y2="0%">
      <stop offset="0%" style="stop-color:#ade8f4;stop-opacity:1" />
      <stop offset="100%" style="stop-color:#0096c7;stop-opacity:1" />
    </linearGradient>
    
    <!-- 3D effect gradients -->
    <linearGradient id="topFace" x1="0%" y1="0%" x2="100%" y2="100%">
      <stop offset="0%" style="stop-color:#ade8f4;stop-opacity:1" />
      <stop offset="100%" style="stop-color:#0096c7;stop-opacity:0.8" />
    </linearGradient>
    
    <linearGradient id="leftFace" x1="0%" y1="0%" x2="100%" y2="100%">
      <stop offset="0%" style="stop-color:#0096c7;stop-opacity:0.9" />
      <stop offset="100%" style="stop-color:#0077a3;stop-opacity:1" />
    </linearGradient>
    
    <linearGradient id="rightFace" x1="0%" y1="0%" x2="100%" y2="100%">
      <stop offset="0%" style="stop-color:#0096c7;stop-opacity:0.7" />
      <stop offset="100%" style="stop-color:#005577;stop-opacity:1" />
    </linearGradient>
    
    <!-- Enhanced glow effect -->
    <filter id="glow">
      <feGaussianBlur stdDeviation="2" result="coloredBlur"/>
      <feMerge> 
        <feMergeNode in="coloredBlur"/>
        <feMergeNode in="SourceGraphic"/>
      </feMerge>
    </filter>
  </defs>
  
  <!-- Abstract Tech logo mark -->
  <g transform="translate(4, 8)">
    <!-- Main geometric shapes - abstract interconnected elements -->
    <!-- Base shadow layers -->
    <polygon points="2,14 10,6 18,14 10,22" fill="#005577" opacity="0.2" transform="translate(2,2)"/>
    <circle cx="12" cy="18" r="6" fill="#005577" opacity="0.15" transform="translate(2,2)"/>
    
    <!-- Primary geometric elements -->
    <!-- Central diamond/rhombus -->
    <polygon points="2,14 10,6 18,14 10,22" fill="url(#primaryGradient)" filter="url(#glow)"/>
    
    <!-- Overlapping circle -->
    <circle cx="12" cy="18" r="6" fill="url(#topFace)" opacity="0.8" filter="url(#glow)"/>
    
    <!-- Connecting triangular elements -->
    <polygon points="10,6 18,14 22,10" fill="url(#rightFace)" opacity="0.9"/>
    <polygon points="2,14 10,22 6,26" fill="url(#leftFace)" opacity="0.9"/>
    
    <!-- Inner core elements -->
    <polygon points="6,14 10,10 14,14 10,18" fill="url(#accentGradient)" opacity="0.7"/>
    <circle cx="12" cy="18" r="3" fill="#ade8f4" opacity="0.9"/>
    
    <!-- Tech connector lines -->
    <line x1="10" y1="6" x2="12" y2="15" stroke="url(#accentGradient)" stroke-width="1.5" opacity="0.8"/>
    <line x1="18" y1="14" x2="15" y2="18" stroke="url(#primaryGradient)" stroke-width="1.5" opacity="0.8"/>
    <line x1="10" y1="22" x2="9" y2="18" stroke="url(#accentGradient)" stroke-width="1.5" opacity="0.8"/>
    <line x1="2" y1="14" x2="7" y2="15" stroke="url(#primaryGradient)" stroke-width="1.5" opacity="0.8"/>
    
    <!-- Node points -->
    <circle cx="10" cy="6" r="1.5" fill="#ade8f4" opacity="0.9"/>
    <circle cx="18" cy="14" r="1.5" fill="#ade8f4" opacity="0.9"/>
    <circle cx="10" cy="22" r="1.5" fill="#ade8f4" opacity="0.9"/>
    <circle cx="2" cy="14" r="1.5" fill="#ade8f4" opacity="0.9"/>
    
    <!-- Additional abstract elements -->
    <polygon points="14,8 20,12 16,16" fill="url(#primaryGradient)" opacity="0.6"/>
    <polygon points="6,20 4,16 8,18" fill="url(#accentGradient)" opacity="0.6"/>
  </g>
  
  <!-- ACE Text in white -->
  <g transform="translate(36, 8)">
    <!-- Letter A -->
    <path d="M0 24 L6 8 L8 8 L14 24 L11.5 24 L10.2 20 L3.8 20 L2.5 24 Z M4.6 17.5 L9.4 17.5 L7 10.5 Z" 
          fill="white" 
          font-family="Inter, system-ui, sans-serif" 
          font-weight="700"/>
    
    <!-- Letter C -->
    <path d="M20 8.5 C23.5 8.5 26 10.5 26.5 13.5 L24 14 C23.7 11.8 22.1 10.5 20 10.5 C17.5 10.5 16 12.5 16 16 C16 19.5 17.5 21.5 20 21.5 C22.1 21.5 23.7 20.2 24 18 L26.5 18.5 C26 21.5 23.5 23.5 20 23.5 C16 23.5 13.5 20.8 13.5 16 C13.5 11.2 16 8.5 20 8.5 Z" 
          fill="white" 
          font-family="Inter, system-ui, sans-serif" 
          font-weight="700"/>
    
    <!-- Letter E -->
    <path d="M30 24 L30 8 L42 8 L42 10.5 L32.5 10.5 L32.5 14.5 L41 14.5 L41 17 L32.5 17 L32.5 21.5 L42 21.5 L42 24 Z" 
          fill="white" 
          font-family="Inter, system-ui, sans-serif" 
          font-weight="700"/>
  </g>
  
  <!-- Abstract tech accent elements -->
  <g transform="translate(108, 10)">
    <!-- Interconnected nodes -->
    <circle cx="2" cy="4" r="1.5" fill="url(#primaryGradient)" opacity="0.8"/>
    <circle cx="6" cy="2" r="1" fill="url(#accentGradient)" opacity="0.6"/>
    <circle cx="4" cy="6" r="1.2" fill="url(#primaryGradient)" opacity="0.7"/>
    
    <!-- Connection lines -->
    <line x1="2" y1="4" x2="6" y2="2" stroke="url(#accentGradient)" stroke-width="0.8" opacity="0.5"/>
    <line x1="2" y1="4" x2="4" y2="6" stroke="url(#primaryGradient)" stroke-width="0.8" opacity="0.5"/>
  </g>
  
  <g transform="translate(114, 14)">
    <!-- Abstract geometric shape -->
    <polygon points="0,2 3,0 6,2 3,4" fill="url(#accentGradient)" opacity="0.6"/>
    <polygon points="1,2 3,1 5,2 3,3" fill="url(#primaryGradient)" opacity="0.4"/>
  </g>
  
  <g transform="translate(110, 20)">
    <!-- Network node cluster -->
    <circle cx="1" cy="1" r="0.8" fill="url(#primaryGradient)" opacity="0.6"/>
    <circle cx="3" cy="3" r="0.6" fill="url(#accentGradient)" opacity="0.8"/>
    <circle cx="5" cy="1" r="0.7" fill="url(#primaryGradient)" opacity="0.5"/>
    
    <!-- Micro connections -->
    <line x1="1.8" y1="1" x2="2.2" y2="3" stroke="url(#accentGradient)" stroke-width="0.4" opacity="0.7"/>
    <line x1="3.8" y1="3" x2="4.2" y2="1" stroke="url(#primaryGradient)" stroke-width="0.4" opacity="0.7"/>
  </g>
</svg>
